<?xml version="1.0" encoding="utf-8"?>
<!-- Generator: Adobe Illustrator 19.0.0, SVG Export Plug-In . SVG Version: 6.00 Build 0)  -->
<svg version="1.1" id="Layer_1" xmlns="http://www.w3.org/2000/svg" xmlns:xlink="http://www.w3.org/1999/xlink" x="0px" y="0px"
	 viewBox="-264 387.9 67 67" style="enable-background:new -264 387.9 67 67;" xml:space="preserve">
<style type="text/css">
	.st0{fill:#828282;}
</style>
<path class="st0" d="M-222.5,427.9c-3,0-5.5-2.5-5.5-5.5c0-3,2.5-5.5,5.5-5.5s5.5,2.5,5.5,5.5C-217,425.4-219.5,427.9-222.5,427.9z
	 M-232,422.4c0-3.6-2.9-6.5-6.5-6.5s-6.5,2.9-6.5,6.5c0,3.6,2.9,6.5,6.5,6.5S-232,426-232,422.4z M-222.5,415.9
	c-3.6,0-6.5,2.9-6.5,6.5c0,3.6,2.9,6.5,6.5,6.5s6.5-2.9,6.5-6.5C-216,418.8-218.9,415.9-222.5,415.9z M-231,451.9
	c-16.6,0-30-13.4-30-30c0-16.6,13.4-30,30-30s30,13.4,30,30C-201,438.5-214.4,451.9-231,451.9z"/>
</svg>
